<?xml version="1.0" standalone="no"?><!DOCTYPE svg PUBLIC "-//W3C//DTD SVG 1.1//EN" "http://www.w3.org/Graphics/SVG/1.1/DTD/svg11.dtd"><svg class="icon" width="200px" height="200.00px" viewBox="0 0 1024 1024" version="1.1" xmlns="http://www.w3.org/2000/svg"><path d="M638.4 377.1l-198 198h73.1l124.9-124.9zM638.4 334.7v-37.4c0-8.3-6.7-15-15-15H400.6c-8.3 0-15 6.7-15 15v277.8H398l240.4-240.4z m-195.9-17.6c18.3 0 33.1 14.8 33.1 33.1s-14.8 33.1-33.1 33.1-33.1-14.8-33.1-33.1 14.8-33.1 33.1-33.1zM638.4 492.6l-82.5 82.5H629l9.4-9.4zM411.4 171.4h200.2c11.3 0 20.6-9.2 20.6-20.6v-9.9c0-11.3-9.2-20.6-20.6-20.6H411.4c-11.3 0-20.6 9.2-20.6 20.6v9.9c0 11.4 9.2 20.6 20.6 20.6z" fill="#FFBC00" /><path d="M411.4 201.4h200.2c27.9 0 50.6-22.7 50.6-50.6v-9.9c0-27.9-22.7-50.6-50.6-50.6H411.4c-27.9 0-50.6 22.7-50.6 50.6v9.9c0 27.9 22.7 50.6 50.6 50.6z m-20.6-60.5c0-11.3 9.2-20.6 20.6-20.6h200.2c11.3 0 20.6 9.2 20.6 20.6v9.9c0 11.3-9.2 20.6-20.6 20.6H411.4c-11.3 0-20.6-9.2-20.6-20.6v-9.9z" fill="#46287C" /><path d="M442.5 350.2m-33.1 0a33.1 33.1 0 1 0 66.2 0 33.1 33.1 0 1 0-66.2 0Z" fill="#FFFFFF" /><path d="M258.9 605.1l244.7 281.1c2.3 2.7 5.3 4.2 8.4 4.2 3.1 0 6-1.5 8.4-4.2l244.7-281.1H258.9z" fill="#FFBC00" /><path d="M797.1 590.6c-2.1-4.6-9.2-15.4-29.1-15.4h-99.6V297.3c0-24.8-20.2-45-45-45H400.6c-24.8 0-45 20.2-45 45v277.8H256c-19.9 0-26.9 10.8-29.1 15.4-2.1 4.6-5.6 17.1 7.4 32L481 905.9c8 9.2 19.3 14.5 31 14.5s23-5.3 31-14.5l246.6-283.3c13.1-15 9.6-27.4 7.5-32zM512 890.4c-3.1 0-6-1.5-8.4-4.2L258.9 605.1H765L520.4 886.2c-2.4 2.7-5.3 4.2-8.4 4.2z m-71.6-315.3l198-198v73.1L513.5 575.1h-73.1z m115.5 0l82.5-82.5v73.1l-9.4 9.4h-73.1zM385.6 297.3c0-8.3 6.7-15 15-15h222.8c8.3 0 15 6.7 15 15v37.4L398 575.1h-12.3V297.3z" fill="#46287C" /></svg>