<?xml version="1.0" standalone="no"?><!DOCTYPE svg PUBLIC "-//W3C//DTD SVG 1.1//EN" "http://www.w3.org/Graphics/SVG/1.1/DTD/svg11.dtd"><svg class="icon" width="200px" height="200.00px" viewBox="0 0 1024 1024" version="1.1" xmlns="http://www.w3.org/2000/svg"><path d="M512 512m-448 0a448 448 0 1 0 896 0 448 448 0 1 0-896 0Z" fill="#4565ED" /><path d="M512 512m-448 0a448 448 0 1 0 896 0 448 448 0 1 0-896 0Z" fill="#88C6FF" /><path d="M885.1 760H138.9C219.1 880.6 356.3 960 512 960s292.9-79.4 373.1-200zM616.8 750H295.6c-5.5 0-10-4.5-10-10V296.9c0-5.5 4.5-10 10-10h321.2c5.5 0 10 4.5 10 10V740c0 5.5-4.4 10-10 10z" fill="#0285FF" /><path d="M322.1 750h-26.6c-5.5 0-10-4.5-10-10V296.9c0-5.5 4.5-10 10-10h26.6V750z" fill="#D9EDFF" /><path d="M732.4 750h-24.6c-3.3 0-6-2.7-6-6V360h36.6v384c0 3.3-2.7 6-6 6z" fill="#0285FF" /><path d="M701.9 360l18.2-48.7 18.3 48.7zM732.4 750h-24.6c-3.3 0-6-2.7-6-6v-30.6h36.6V744c0 3.3-2.7 6-6 6z" fill="#FFEC16" /><path d="M701.9 693.9h36.6v12.2h-36.6zM701.9 674.4h36.6v12.2h-36.6zM399.7 416.6c-1-2.7 1.4-2.9 7.1-0.6s8.4 5.6 8 10c-0.4 4.4-1.6 6.2-3.7 5.4-2.1-0.8-4.3-2.7-6.6-5.7-2.3-3.4-3.9-6.5-4.8-9.1z m10.8 61.4c-1.7 7.8-4.2 8.1-7.4 0.9-3.2-7.2-3.9-11.1-2-11.7 1.9-0.6 4.3-2.8 7.1-6.6 2.9-3.8 7-9.9 12.6-18.3 5.5-8.4 5.6-6.5 0.3 5.7s-8.9 22.2-10.6 30z m3.5-86.3c-1.7-2.9-0.7-3.9 3.1-3.1 3.8 0.8 7 2 9.7 3.7 2.7 1.7 3.6 4.4 2.9 8-0.8 3.6-2 5.1-3.7 4.3-1.7-0.8-3.7-2.3-6-4.6-2.3-2.7-4.3-5.4-6-8.3z m37.1 36.6c-0.6 1-1.2 2.6-2 4.9 2.7 0.4 4.9 0.6 6.9 0.6 1.9 0 3.9 0.8 6 2.3 2.1 1.5 2.4 3.4 0.9 5.7-1.5 2.3-2.5 5.6-2.9 10-0.4 4.4-1.5 10-3.4 16.9-1.9 6.9-4.9 12.1-8.9 15.7-4 3.6-6.4 3.6-7.1 0-0.8-3.6-2.1-6.9-4-10-1.9-3-2.4-4.4-1.4-4 0.9 0.4 2.9 1.3 5.7 2.9 2.9 1.5 5.3 0 7.4-4.6 2.1-4.6 3.6-10 4.6-16.3 0.9-6.3 1-10.5 0.3-12.6-0.8-2.1-2.5-3.5-5.1-4.3-1.9 5.3-5.6 12-11.1 20s-10.9 13.3-16 16c-5.1 2.7-6.5 2.7-4 0s5.4-6.3 8.9-10.9 7-10.2 10.9-16.9c3.8-6.7 5.7-13.4 5.7-20.3-2.7 0-5.2 0.2-7.7 0.6-2.5 0.4-5-0.1-7.4-1.4-2.5-1.3-1.4-2.5 3.1-3.4 4.6-0.9 9.9-2.3 16-4 6.1-1.7 10.8-3 14-4 3.2-0.9 5.9-0.3 8 2 2.1 2.3 0.9 4-3.4 5.1-4.4 1.1-10.2 2.5-17.4 4 2.7 3 4 5 3.4 6z m-7.4-40.9c-0.2-1.1 1.9-1.4 6.3-0.9 4.4 0.6 7.3 2 8.9 4.3 1.5 2.3 2 4.8 1.4 7.4-0.6 2.7-2 3.5-4.3 2.6-2.3-0.9-5-3.1-8-6.6-2.7-3.3-4.1-5.6-4.3-6.8z m71.1 56.3c5.3-0.9 9.3 0 12 2.9 2.7 2.9 1.5 4.4-3.4 4.6-5 0.2-13 0.7-24 1.4 1.1 6.9 1.2 15.3 0.3 25.4-1 10.1-3.6 17.2-8 21.4-4.4 4.2-7.3 4.8-8.9 1.7-1.5-3.1-4.4-5.9-8.6-8.6-4.2-2.7-4.7-3.7-1.4-3.1 3.2 0.6 6.8 1 10.6 1.1 3.8 0.2 6.4-3.4 7.7-10.9 1.3-7.4 1.4-15.9 0.3-25.4-8.8 1.5-14.6 2.5-17.4 2.9-2.9 0.4-5.9-0.5-9.1-2.6-3.2-2.1-2.6-3.1 2-3.1 4.9 0 12.6-0.8 22.9-2.3-0.8-4.6-2.7-7.9-5.7-10-3.1-2.1-0.6-2.8 7.4-2 3.8-6.5 5.6-10.3 5.4-11.4-0.2-1.1-2.8-1-7.7 0.3-5 1.3-8.5 2.4-10.6 3.1-2.1 0.8-5 0.1-8.6-2-3.6-2.1-3.1-3.1 1.4-3.1 4.9 0 10.2-0.7 15.7-2s9.2-2.7 11.1-4c1.9-1.3 5.2-0.5 10 2.6s5.2 5.1 1.4 6.3c-3.8 1.1-9.1 5.3-16 12.6 1.9 1.9 3.2 4.6 4 8 6.1-1.6 11.9-2.8 17.2-3.8z m-9.4-47.1c4-1.9 7.4-1.8 10.3 0.3 2.9 2.1 1.8 4-3.1 5.7-5 1.7-10.1 3-15.4 3.7-5.3 0.8-10.3 0.4-14.9-1.1-3.8 5-7.2 8.2-10.3 9.7-3.1 1.5-3.1 0 0-4.6 3-4.6 5.6-10.3 7.7-17.1 2.1-6.9 2.8-11.5 2-14-0.8-2.5 0-3.4 2.3-2.9s4.8 1.6 7.4 3.1c2.7 1.5 3.3 3 2 4.3-1.3 1.3-2.8 3.7-4.3 7.1-1.5 3.4-3.4 7.4-5.7 12 10.6-2.2 18-4.3 22-6.2zM437.1 602.9c-2.7 2.7-4.6 8.8-5.7 18.3-1.1 9.5-1.5 15.4-1.1 17.7 0.4 2.3 3.6 1.6 9.7-2s9.5-5.1 10.3-4.6c0.8 0.6-2.4 4-9.4 10.3-7.1 6.3-12 11.6-14.9 16-2.9 4.4-5.1 4.4-6.9 0-1.7-4.4-1.8-7.8-0.3-10.3 1.5-2.5 2.8-5.4 3.7-8.9 0.9-3.4 1.6-8 2-13.7 0.4-5.7 0.7-11 0.9-16 0.2-4.9-1.2-6.9-4.3-6-3.1 1-6.4 2.4-10 4.3-3.6 1.9-7.1 1.7-10.6-0.6s-3.3-3.6 0.3-4c3.6-0.4 7.9-1.4 12.9-3.1 4.9-1.7 8.5-3.3 10.6-4.9 2.1-1.5 4.9-1.5 8.3 0 5.6 2.4 7.2 4.9 4.5 7.5z m4-40c2.7 2.3 3.5 5.5 2.6 9.7-1 4.2-4.1 4.4-9.4 0.6-5.3-3.8-9.3-7.2-12-10.3-2.7-3-1-4.4 5.1-4 6.5 0.4 11 1.7 13.7 4z m51.7 42.3c-6.3 1.1-15 3.2-26 6.3-1.5 15.2-1.6 26-0.3 32.3 1.3 6.3 4.2 10.4 8.6 12.3 4.4 1.9 10.5 2.8 18.3 2.6 7.8-0.2 13.6-1 17.4-2.6 3.8-1.5 6.1-4.4 6.9-8.6 0.8-4.2 1.5-8.8 2.3-13.7 0.8-4.9 1.6-3.2 2.6 5.1 0.9 8.4 2.9 13.7 6 16 3 2.3 1.3 4.9-5.1 7.7-6.5 2.9-15.2 4.5-26.3 4.9-11.1 0.4-19.9-0.8-26.6-3.4-6.7-2.7-10.3-9.6-10.9-20.9-0.6-11.2-0.7-19.6-0.3-25.1 0.4-5.5-0.2-9.8-1.7-12.9-1.5-3-0.9-4.2 2-3.4 2.9 0.8 5.4 2.1 7.7 4l20.6-5.7c1.1-9.1 1.8-15.5 2-19.1 0.2-3.6-2.7-4.6-8.6-2.9-5.9 1.7-11 3.2-15.1 4.6-4.2 1.3-8.3 1-12.3-1.1s-3-3.3 3.1-3.7c6.1-0.4 12.2-1.5 18.3-3.4 6.1-1.9 10.2-3.6 12.3-5.1 2.1-1.5 4.6-1.8 7.4-0.9 2.9 1 5.6 2.4 8.3 4.3 2.7 1.9 2.5 4.5-0.6 7.7s-6.1 9.2-9.1 18c5.7 3.3 5.4 5.6-0.9 6.7z" fill="#D9EDFF" /></svg>