<?xml version="1.0" standalone="no"?><!DOCTYPE svg PUBLIC "-//W3C//DTD SVG 1.1//EN" "http://www.w3.org/Graphics/SVG/1.1/DTD/svg11.dtd"><svg class="icon" width="200px" height="200.00px" viewBox="0 0 1024 1024" version="1.1" xmlns="http://www.w3.org/2000/svg"><path d="M184.21164 711.56261l23.477954 54.179894h581.530865l32.507936-3.611993 3.611993-50.567901zM592.366843 411.767196l-178.793651 178.793651c23.477954 23.477954 55.985891 39.731922 92.10582 39.731922 70.433862 0 126.419753-55.985891 126.419753-126.419753 0-36.119929-16.253968-68.627866-39.731922-92.10582z" fill="#C0EAFF" /><path d="M791.026455 787.414462H232.973545c-36.119929 0-66.821869-30.70194-66.82187-66.821869V435.24515c0-34.313933 27.089947-61.40388 61.403881-61.40388h36.119929c12.641975 0 25.283951-9.029982 30.70194-21.671958l21.671958-57.791887c12.641975-36.119929 46.955908-59.597884 86.68783-59.597884h222.137567c37.925926 0 72.239859 23.477954 86.68783 59.597884l21.671958 57.791887c5.417989 12.641975 16.253968 21.671958 30.70194 21.671958h36.119929c34.313933 0 61.40388 27.089947 61.40388 61.40388v283.541446c-3.611993 37.925926-34.313933 68.627866-70.433862 68.627866zM227.555556 411.767196c-14.447972 0-25.283951 10.835979-25.283951 25.28395v283.541447c0 16.253968 14.447972 30.70194 30.70194 30.70194h558.05291c16.253968 0 30.70194-14.447972 30.70194-30.70194V435.24515c0-14.447972-10.835979-25.283951-25.283951-25.283951h-36.119929c-28.895944 0-54.179894-18.059965-65.015873-45.149912L673.636684 307.0194c-7.223986-21.671958-28.895944-36.119929-52.373897-36.119929H400.931217c-23.477954 0-43.343915 14.447972-52.373898 36.119929l-21.671957 57.791887c-9.029982 27.089947-36.119929 45.149912-65.015873 45.149912h-34.313933z" fill="#1F87DD" /><path d="M511.097002 650.15873c-79.463845 0-144.479718-65.015873-144.479718-144.479718s65.015873-144.479718 144.479718-144.479717 144.479718 65.015873 144.479718 144.479717c1.805996 79.463845-63.209877 144.479718-144.479718 144.479718z m0-254.645502c-59.597884 0-108.359788 48.761905-108.359789 108.359788s48.761905 108.359788 108.359789 108.359788 108.359788-48.761905 108.359788-108.359788-46.955908-108.359788-108.359788-108.359788zM778.38448 484.007055h-68.627866c-10.835979 0-18.059965-7.223986-18.059965-18.059965s7.223986-18.059965 18.059965-18.059965h68.627866c10.835979 0 18.059965 7.223986 18.059964 18.059965s-7.223986 18.059965-18.059964 18.059965zM832.564374 724.204586H538.186949c-10.835979 0-18.059965-7.223986-18.059965-18.059965s7.223986-18.059965 18.059965-18.059965h294.377425c10.835979 0 18.059965 7.223986 18.059965 18.059965s-7.223986 18.059965-18.059965 18.059965zM451.499118 724.204586h-39.731922c-10.835979 0-18.059965-7.223986-18.059965-18.059965s7.223986-18.059965 18.059965-18.059965H451.499118c10.835979 0 18.059965 7.223986 18.059965 18.059965s-9.029982 18.059965-18.059965 18.059965zM317.855379 724.204586H198.659612c-10.835979 0-18.059965-7.223986-18.059965-18.059965s7.223986-18.059965 18.059965-18.059965h121.001764c10.835979 0 18.059965 7.223986 18.059964 18.059965s-9.029982 18.059965-19.865961 18.059965z" fill="#1F87DD" /></svg>