<?xml version="1.0" standalone="no"?><!DOCTYPE svg PUBLIC "-//W3C//DTD SVG 1.1//EN" "http://www.w3.org/Graphics/SVG/1.1/DTD/svg11.dtd"><svg class="icon" width="200px" height="200.00px" viewBox="0 0 1024 1024" version="1.1" xmlns="http://www.w3.org/2000/svg"><path d="M885.9 512v237c0 27.1-22.1 49.1-49.1 49.1H568.7V514c13.9 4.7 30.9 10.1 51.7 16.2 13.5 3.9 25.4 5.9 35.8 5.9 13.3 0 24-3.2 32.1-9.7 5.4-4.3 8.7-9.4 10.9-14.4h186.7z" fill="#FFE085" /><path d="M885.9 401.6v98.2h-183c0.6-4.4 0.5-7.5 0.5-7.7v-72c0-6.9-0.9-12.9-2.1-18.4h184.6z" fill="#D66474" /><path d="M885.9 188.6v200.7H697.3c-3.2-6.7-7.6-12.3-13.5-16.1-22.9-14.8-56.7-0.1-57.5 0.2l-57.5 20.4V139.5h268.1c26.9 0 49 22.1 49 49.1z" fill="#FFE085" /><path d="M691.1 492.4c0 0.2 0.7 15.5-10.6 24.4-11 8.7-30.7 9.3-56.8 1.6-22.6-6.7-40.6-12.5-55.1-17.4v-0.2h-0.9c-25.6-8.7-39.4-14.6-44.8-17.1 3.1-9.6 5-20.5 5-32.3 0-10.4-1.5-20.1-3.9-28.8l106.5-37.7c8.1-3.6 32-10.7 46.5-1.3 9.2 6 14 18.3 14 36.4v72.4z" fill="#FF6EA9" /><path d="M556.4 509.8V798H429V505.6c16.3-6 25-9.9 28.3-11.5 7.4 14.8 18.2 24.3 30.8 24.3 12.3 0 22.9-9.1 30.2-23.3 5.5 2.4 17.2 7.5 38.1 14.7zM556.4 139.5v258.7L520.1 411c-7.2-16.3-18.7-26.7-31.9-26.7-13.5 0-25.2 10.8-32.3 27.5l-26.9-9.4V139.5h127.4z" fill="#D66474" /><path d="M488.2 396.6c13.3 0 27.6 22 27.6 54.8s-14.4 54.7-27.6 54.7c-13.4 0-27.6-22-27.6-54.7 0-32.9 14.2-54.8 27.6-54.8zM448.3 451.4c0 11.4 1.7 22 4.7 31.3-3.9 1.8-31.2 14.5-103.1 35.7-26.1 7.6-45.8 7.1-56.7-1.6-11.3-9-10.6-24.2-10.6-24.8v-72c0-18.2 4.7-30.4 13.9-36.4 17.4-11.3 46.3 1.2 47 1.6l108.3 38.3c-2.1 8.4-3.5 17.7-3.5 27.9z" fill="#FF6EA9" /><path d="M416.8 139.5V398l-68.7-24.3c-1.5-0.6-35.2-15.3-58.2-0.5-5.9 3.8-10.2 9.3-13.4 16.1H103.6V188.6c0-27 22-49.1 49.1-49.1h264.1zM353.3 530.2c27.1-8 47.9-14.7 63.4-20.2v288h-264c-27.1 0-49.1-22-49.1-49.1V512h170.8c2.3 4.9 5.6 10.1 10.9 14.4 8.1 6.5 18.9 9.7 32.3 9.7 10.5 0 22.4-2 35.7-5.9z" fill="#FFE085" /><path d="M270.9 499.7H103.6v-98.2h168.7c-1.2 5.5-2 11.5-2 18.4v71.7c0.1 0.4-0.2 3.6 0.6 8.1z" fill="#D66474" /><path d="M885.9 499.7v-98.2H701.3c1.2 5.5 2.1 11.5 2.1 18.4v72c0 0.2 0.1 3.3-0.5 7.7h183zM556.4 398.2V139.5H429v262.8l26.9 9.4c7.1-16.7 18.8-27.5 32.3-27.5 13.3 0 24.7 10.4 31.9 26.7l36.3-12.7z m0 111.6c-20.9-7.2-32.6-12.3-38-14.7-7.2 14.2-17.9 23.3-30.2 23.3-12.6 0-23.4-9.4-30.8-24.3-3.3 1.6-12 5.5-28.3 11.5V798h127.4V509.8z m-452.8-10.1h167.2c-0.7-4.5-0.5-7.7-0.5-8.1V420c0-6.9 0.7-12.9 2-18.4H103.6v98.1z m782.3-110.4V188.6c0-27-22.1-49.1-49.1-49.1H568.7v254.4l57.5-20.4c0.9-0.4 34.6-15.1 57.5-0.2 5.9 3.8 10.3 9.3 13.5 16.1h188.7z m0 359.7V512H699.2c-2.2 4.9-5.5 10.1-10.9 14.4-8.1 6.5-18.9 9.7-32.1 9.7-10.4 0-22.3-2-35.8-5.9-20.7-6.1-37.8-11.5-51.7-16.2v284h268.1c27 0 49.1-21.9 49.1-49z m-469.1 49V509.9c-15.6 5.5-36.3 12.3-63.4 20.2-13.4 3.9-25.3 5.9-35.7 5.9-13.4 0-24.2-3.2-32.3-9.7-5.3-4.3-8.6-9.4-10.9-14.4H103.6V749c0 27.1 22 49.1 49.1 49.1h264.1z m99-346.6c0-32.9-14.4-54.8-27.6-54.8-13.4 0-27.6 22-27.6 54.8s14.2 54.7 27.6 54.7c13.2 0 27.6-21.9 27.6-54.7z m-67.5 0c0-10.2 1.3-19.5 3.6-28l-108.3-38.3c-0.7-0.4-29.6-12.9-47-1.6-9.2 6-13.9 18.3-13.9 36.4v72c0 0.6-0.7 15.8 10.6 24.8 10.9 8.7 30.6 9.2 56.7 1.6 71.9-21.2 99.1-33.9 103.1-35.7-3.1-9.2-4.8-19.8-4.8-31.2zM152.7 139.5c-27.1 0-49.1 22.1-49.1 49.1v200.7h172.9c3.2-6.7 7.5-12.3 13.4-16.1 22.9-14.8 56.7-0.1 58.2 0.5l68.7 24.3V139.5H152.7z m684.1-12.3c33.7 0 61.4 27.6 61.4 61.4V749c0 33.9-27.6 61.4-61.4 61.4H152.7c-33.9 0-61.4-27.5-61.4-61.4V188.6c0-33.7 27.5-61.4 61.4-61.4h684.1zM680.6 516.8c11.3-9 10.6-24.2 10.6-24.4V420c0-18.2-4.8-30.4-14-36.4-14.5-9.3-38.4-2.2-46.5 1.3l-106.5 37.7c2.5 8.7 3.9 18.4 3.9 28.8 0 11.8-2 22.7-5 32.3 5.4 2.5 19.1 8.3 44.8 17.1h0.9v0.2c14.5 4.9 32.5 10.7 55.1 17.4 26 7.7 45.6 7.1 56.7-1.6z" fill="#CE1B6D" /></svg>