<?xml version="1.0" standalone="no"?><!DOCTYPE svg PUBLIC "-//W3C//DTD SVG 1.1//EN" "http://www.w3.org/Graphics/SVG/1.1/DTD/svg11.dtd"><svg class="icon" width="200px" height="200.00px" viewBox="0 0 1024 1024" version="1.1" xmlns="http://www.w3.org/2000/svg"><path d="M814.9 264.6L687 142c-11.3-10.8-26.3-16.3-41.5-15.8-0.5 0-1-0.1-1.5-0.1H332.6c-77.4 0-140.4 60.7-140.4 135.2v501.3c0 74.6 63 135.2 140.4 135.2h358.7c77.4 0 140.4-60.7 140.4-135.2V305.3c0.7-15-5.2-29.6-16.8-40.7zM623.1 181c0-13.4 10.8-19.1 14.1-20.5 3-1.3 6.6-2.1 10.5-2.1 5.7 0 11.8 1.9 17.1 6.9l127.9 122.6c6.7 6.4 8.7 15.2 5.3 23.6-2.9 7.1-10.3 14.7-22.7 14.7h-128c-13.4 0-24.2-10.1-24.2-22.6V181z m176.4 581.7c0 56.8-48.5 103-108.2 103H332.6c-59.7 0-108.2-46.2-108.2-103V261.3c0-56.8 48.5-103 108.2-103h263.1c-3.2 6.9-4.9 14.6-4.9 22.6v122.6c0 30.2 25.3 54.8 56.5 54.8h127.9c8.6 0 16.9-1.9 24.3-5.3v409.7z" fill="#333333" /><path d="M498.4 424.9H325.1c-8.9 0-16.1-7.2-16.1-16.1s7.2-16.1 16.1-16.1h173.4c8.9 0 16.1 7.2 16.1 16.1s-7.3 16.1-16.2 16.1zM696.8 559.5H325.1c-8.9 0-16.1-7.2-16.1-16.1s7.2-16.1 16.1-16.1h371.7c8.9 0 16.1 7.2 16.1 16.1s-7.2 16.1-16.1 16.1zM696.8 694.2H325.1c-8.9 0-16.1-7.2-16.1-16.1s7.2-16.1 16.1-16.1h371.7c8.9 0 16.1 7.2 16.1 16.1s-7.2 16.1-16.1 16.1z" fill="#EF7F1A" /></svg>